<svg width="40" height="40" viewBox="0 0 40 40" fill="none" xmlns="http://www.w3.org/2000/svg">
<circle cx="20" cy="20" r="20" fill="white"/>
<path d="M27.3 12.5996H8V22.2996H27.3V12.5996Z" fill="#004C6A"/>
<path d="M29.5998 15H10.2998V24.7H29.5998V15Z" fill="#00A796"/>
<path d="M32.0002 17.6992H12.7002V27.3992H32.0002V17.6992Z" fill="#5BC4BF"/>
<path d="M16.9 18.9004H14V19.9004H16.9V18.9004Z" fill="#004C6A"/>
<path d="M30.8004 25.2988H27.9004V26.2988H30.8004V25.2988Z" fill="#004C6A"/>
<path d="M25.7004 22.5992C25.7004 24.4992 24.2004 25.9992 22.3004 25.9992C20.4004 25.9992 18.9004 24.4992 18.9004 22.5992C18.9004 20.6992 20.4004 19.1992 22.3004 19.1992C24.2004 19.1992 25.7004 20.6992 25.7004 22.5992Z" fill="#004C6A"/>
</svg>
