<svg width="40" height="40" viewBox="0 0 40 40" fill="none" xmlns="http://www.w3.org/2000/svg">
<circle cx="20" cy="20" r="20" fill="white"/>
<path d="M29 26L19.9 29L11 26V14L20 17L29 14V26Z" fill="#004C6A"/>
<path d="M14 13H13.7C13.5 13 13.3 13.1 13.2 13.2C13.1 13.3 13 13.5 13 13.7V24.4C13 24.8 13.3 25.1 13.7 25.1C15.3 25.1 18.1 25.5 20 27.5V16.3C20 16.2 20 16 19.9 15.9C18.3 13.4 15.4 13 13.7 13" fill="#4DB2AE"/>
<path d="M27 24V13.7C27 13.5 26.9 13.3 26.8 13.2C26.7 13.1 26.5 13 26.3 13C24.7 13 21.7 13.4 20.1 15.9C20 16 20 16.2 20 16.3V27.5C21.9 25.5 24.7 25.1 26.3 25.1C26.7 25.1 27 24.8 27 24.4" fill="#5BC4BF"/>
</svg>
