<svg width="40" height="40" viewBox="0 0 40 40" fill="none" xmlns="http://www.w3.org/2000/svg">
<circle cx="20" cy="20" r="20" fill="white"/>
<path d="M27.2727 18.3633H24V28.9996H27.2727V18.3633Z" fill="#004C6A"/>
<path d="M21.5462 24.0918H18.2734V29.0009H21.5462V24.0918Z" fill="#004C6A"/>
<path d="M15.8186 20.8184H12.5459V29.0002H15.8186V20.8184Z" fill="#004C6A"/>
<path d="M19.9093 20.0022C19.8275 20.0022 19.7456 20.0022 19.6638 19.9203L13.4456 17.0567C13.1184 16.8931 13.0366 16.5658 13.1184 16.2385C13.3638 15.9113 13.6911 15.7476 14.0184 15.9113L19.7457 18.6113L25.6366 12.3931C25.882 12.1476 26.2911 12.1476 26.5366 12.3931C26.782 12.6385 26.782 12.9658 26.6184 13.2113L20.482 19.8385C20.2366 19.9203 20.0729 20.0022 19.9093 20.0022Z" fill="#5BC4BF"/>
<path d="M25.6364 14.2727C26.5401 14.2727 27.2727 13.5401 27.2727 12.6364C27.2727 11.7326 26.5401 11 25.6364 11C24.7326 11 24 11.7326 24 12.6364C24 13.5401 24.7326 14.2727 25.6364 14.2727Z" fill="#5BC4BF"/>
<path d="M19.9098 20.8176C20.8135 20.8176 21.5462 20.085 21.5462 19.1813C21.5462 18.2775 20.8135 17.5449 19.9098 17.5449C19.0061 17.5449 18.2734 18.2775 18.2734 19.1813C18.2734 20.085 19.0061 20.8176 19.9098 20.8176Z" fill="#5BC4BF"/>
<path d="M13.3639 17.5462C14.2676 17.5462 15.0003 16.8135 15.0003 15.9098C15.0003 15.0061 14.2676 14.2734 13.3639 14.2734C12.4602 14.2734 11.7275 15.0061 11.7275 15.9098C11.7275 16.8135 12.4602 17.5462 13.3639 17.5462Z" fill="#5BC4BF"/>
</svg>
