<svg xmlns="http://www.w3.org/2000/svg" width="177" height="27" fill="none" viewBox="0 0 177 27">
    <path fill="#0A4356" d="M61.396 2.734s-.285-.182-.474.182c0 0-1.044 1.185-1.897 1.094-.854-.182-3.414 0-4.363.091-.948.182-1.991-.365-1.517-.82 0 0 0-.182.853-.456.854-.273 1.423-.729 1.423-.729s1.328-.638 1.992-1.276c.569-.638.094-.82.094-.82s-.379 0-4.362.73c0 0-1.233.09-2.276 1.275-.19.182-.38.364-.474.547l-.475.455c-.569.183-1.422.365-1.612.365-2.466.182-4.932.456-7.303.911-3.793.638-7.492 1.64-10.811 3.372-3.035 1.55-5.975 1.64-9.105.912-2.465-.547-4.836-1.185-7.302-1.732-2.56-.547-6.07-1.458-8.725-1.458-2.656 0-5.406 1.914-5.027 5.468.19 1.731.38 1.64 1.138 3.736 2.087 4.557 4.932 8.476 8.156 12.03.285.365.76.365 1.707.091.095-.09-.758-.911-.948-1.093-.19-.183-.569-.547-.664-.73-.474-.546-.853-1.184-1.327-1.731-.19-.182-.949-1.276-1.139-1.458-.474-.73-1.612-2.643-1.707-3.008-.948-1.822-3.414-6.105-3.034-8.657C2.69 8.02 4.493 6.926 6.674 7.29c4.362.729 8.63 1.731 12.898 2.734 1.897.455 3.794.638 5.69.911 1.802.274 3.51-.182 5.122-.911 2.845-1.276 5.785-2.37 8.82-3.19 2.276-.638 4.647-1.002 6.923-1.276.38 0 1.707-.091 2.086-.182 1.043-.273 1.802.091 2.181 1.002.19.365.38.73.664.912.57.455.474.82-.094 1.276-3.035 2.734-4.363 6.379-5.217 10.207-.19 1.367-.094 2.734-.19 4.01-1.422-.547-2.655-1.185-3.888-1.732-2.75-1.276-5.216-3.19-8.44-3.463-3.225-.273-6.45-1.003-9.674-1.64-1.328-.274-4.647-1.094-4.931-1.185-3.225-.82-6.26-1.914-9.39-3.099-1.043-.364-2.086-.182-2.845.547-.663.638-.948 1.458-.663 2.734.19 1.002.284 1.914 2.56 6.106.57 1.094 1.138 1.914 1.897 2.825.474.547 1.897 2.46 2.181 2.643 1.043.364 1.138 0 1.138 0-.095-.182-.284-.364-.38-.547-2.939-3.19-5.025-6.835-6.069-10.936-.19-.729-.284-1.458.38-2.005.474-.456 1.043-.456 1.612-.364.19.09.284.09.474.182 7.682 3.098 14.32 4.648 21.813 6.106 1.517.273 3.13.273 4.457 1.185 1.423 1.002 2.94 1.64 4.458 2.551 1.707 1.003 3.698 1.55 5.216 2.825.664.547 1.328.82 2.086.912 2.656.364 5.311-.365 8.062-.273.379 0 1.043-.092.948-.73-.095-.637-.664-.546-1.043-.637-.854-.183-1.802-.183-2.656-.274-1.707-.182-3.224-1.002-4.931-1.002-.57 0-.57-.183-.57-.638 0-1.732.19-3.463.76-5.195.758-2.278 1.896-4.374 3.793-6.015.19-.182.569-.638.853-.729.095.091.285.182.285.182.19.183 1.043.365 1.328.365.569 0 .948-.182 1.327-.638.38-.365.19-.82.19-.82-.095-.456-.19-1.185-.095-1.55.38-1.549-.095-2.551-.095-2.551.475-.091 1.044-.274 1.802-.365 2.087-.364 3.13-.638 3.794-2.005.095.365.569-.638.095-.82z"/>
    <path fill="#26A596" d="M102.598 10.126c-1.619 0-3.523 0-3.999-.092-.095.457-.285 1.096-.476 1.553h1.999c-1.142 1.735-1.904 2.831-2.76 3.836-.667.822-2.38.822-3.333.822h-.38c.57-.64.951-1.096.951-2.923 0-2.1-.952-3.196-3.047-3.196h-1.809c-2.285 2.192-2.76 3.105-2.76 4.475 0 .64.19 1.187.475 1.644h-1.047c-2.19 0-2.761-.366-2.761-2.01v-3.744c-.476.183-1.238.365-1.81.365.096.64.096 2.466.096 4.293-.857.64-2.475 1.005-4.856 1.005h-.476c-2.57 0-3.047-.64-3.142-2.192-.095-2.375-.19-3.654-.285-4.476-.572.366-1.238.64-1.81.731.19.64.381 1.918.667 4.658-.857.822-2.285 1.187-3.713 1.187-.762 0-1.143-.183-1.143-.64v-1.186c-.38.182-.857.365-1.238.365v1.644c0 1.096.477 1.826 2 1.826 1.428 0 3.237-.548 3.618-1.187.19-.274.38-.73.571-1.005.19 1.462 1.047 2.193 4.19 2.193h.38c2.38-.092 4-.366 4.57-1.096.191-.274.477-.64.762-1.005.19 1.37 1.143 2.1 3.904 2.1h7.331c2.476 0 3.523-.456 4.094-1.187.286-.365.572-.822 1.048-1.37 0 1.644 1.333 2.649 3.332 2.649.762 0 1.428-.091 2.285-.091.762-1.37 1.809-1.918 1.809-4.841.191-1.735-1.142-3.105-3.237-3.105zm-10.283 6.301c-2.761 0-3.713-.822-3.713-2.465 0-.64.19-1.28.761-2.101h1.524c1.428 0 1.904.822 1.904 2.192s-.095 1.826-.476 2.374zm11.902-.182c-.381.091-1.143.091-2 .091-1.618 0-2.285-.64-2.285-1.552 0-.64.19-1.096 1.238-3.014h.762c1.523 0 2.38 1.187 2.38 2.648 0 1.005 0 1.37-.095 1.827z"/>
    <path fill="#0A4356" d="M135.354 8.682c-.082-.482-.082-1.254 0-1.736h-1.735v1.736h1.735zM142.896 5.21c-1.505 1.227-2.479 1.981-4.073 3.113V9.55c1.771-1.226 2.745-1.886 4.338-3.206-.177-.472-.177-.66-.265-1.132z"/>
    <path fill="#26A596" d="M91.97 8.682c-.082-.482-.082-1.254 0-1.736h-1.735c.083.579.083 1.35 0 1.736h1.736z"/>
    <path fill="#0A4356" d="M154.354 10.95c.26 1.5.521 4.323.607 5.911-.433 1.059-1.995 1.941-3.123 2.47.434.354 1.041.971 1.301 1.5.608-.352 1.042-.705 1.389-1.058 1.128-1.059 1.648-2.559 1.648-4.588 0-1.5-.087-3.618-.087-4.765-.607.265-1.214.441-1.735.53zM173.213 11.368H166.2c2.307-1.123 3.876-2.06 5.721-3.183-.277-.468-.461-1.124-.461-1.686-1.015.843-4.338 3.09-7.198 4.87 0 .655-.093 1.123-.185 1.778h8.582c1.662 0 2.861 1.03 2.861 2.716 0 .28 0 .655-.092 1.03-.461.093-.831.093-1.292.093h-11.443c-.738 0-1.108-.28-1.108-1.03V6.031c-.553.281-1.292.562-1.938.656.185 1.404.37 4.588.462 10.205 0 1.405.646 2.154 1.938 2.154 9.966 0 9.044-.094 11.997-.094.461 0 .738 0 1.199.094.739-1.404 1.754-2.154 1.754-4.12.092-1.966-1.569-3.558-3.784-3.558zM147.989 10.68h-7.127c2.438-1.162 3.939-1.967 5.814-3.04-.281-.447-.468-1.072-.468-1.609-1.032.805-4.408 2.95-7.316 4.649 0 .626-.093 1.072-.187 1.698h8.722c1.688 0 2.907.984 2.907 2.593 0 .268 0 .625-.094.983-.469.09-.844.09-1.313.09h-9.659c-2.439 0-3.377-.448-3.47-2.146-.094-1.162-.094-2.414-.188-3.665-.656.268-1.219.447-1.876.536.282 1.52.563 4.38.657 5.99-.469 1.072-2.157 1.966-3.376 2.503.469.357 1.125.983 1.406 1.52.657-.358 1.126-.716 1.501-1.073.844-.716 1.313-1.61 1.594-2.682.469.804 1.501 1.162 3.283 1.162 7.877 0 7.033-.09 10.034-.09.469 0 .751 0 1.22.09.75-1.341 1.782-2.056 1.782-3.934.093-2.056-1.595-3.575-3.846-3.575zM118.459 11.258h1.491c.093-.56.28-1.306.653-1.772h-1.678c-.746 0-1.865 0-2.89.094-.932 1.211-2.517 2.61-2.517 4.66 0 1.585 1.025 2.517 3.076 2.517h2.331c-.187 1.492-1.678 2.051-3.729 2.051h-1.491c-2.145 0-3.077-1.025-3.077-2.61 0-.652.094-1.305.28-2.517-.373.187-.932.28-1.305.373 0 .839-.28 1.958-.28 3.076 0 2.238 1.212 3.636 3.822 3.636h1.678c3.822 0 5.407-2.33 5.407-4.568 0-.932-.28-1.398-1.305-1.398h-1.771c-1.399 0-2.144-.373-2.144-1.399 0-.559.279-1.584.652-2.05.466-.094 1.026-.094 2.797-.094zM128.825 19.046c.413-.28.744-.374 1.24-.468 0-10.3.082-12.079.082-12.547-.495.281-1.239.562-1.735.656.165 1.31.413 5.15.413 12.359zM123.987 10.95c.26 1.5.52 4.323.607 5.911-.434 1.059-1.995 1.941-3.123 2.47.434.354 1.041.971 1.301 1.5.608-.352 1.041-.705 1.388-1.058 1.128-1.059 1.649-2.559 1.649-4.588 0-1.5-.087-3.618-.087-4.765-.607.265-1.128.441-1.735.53z"/>
    <path fill="#26A596" d="M74.618 19.936c.083.579.083 1.35 0 1.736h1.736c-.083-.482-.083-1.253 0-1.736h-1.736zM77.22 19.936c.083.579.083 1.35 0 1.736h1.736c-.083-.482-.083-1.253 0-1.736h-1.735z"/>
</svg>
